<mxfile host="app.diagrams.net" agent="Mozilla/5.0 (Windows NT 10.0; Win64; x64) AppleWebKit/537.36 (KHTML, like Gecko) Chrome/127.0.0.0 Safari/537.36 Edg/127.0.0.0" version="24.7.7">
  <diagram name="Page-1" id="C6_OktZuWUYz2zR_S-3C">
    <mxGraphModel dx="1666" dy="783" grid="1" gridSize="10" guides="1" tooltips="1" connect="1" arrows="1" fold="1" page="1" pageScale="1" pageWidth="850" pageHeight="1100" background="none" math="0" shadow="0">
      <root>
        <mxCell id="0" />
        <mxCell id="1" parent="0" />
        <mxCell id="fgVQ6vixdc5EOe0Mpmk0-1" value="hash-table" style="outlineConnect=0;dashed=0;verticalLabelPosition=bottom;verticalAlign=top;align=center;html=1;shape=mxgraph.aws3.dynamo_db;fillColor=#2E73B8;gradientColor=none;" vertex="1" parent="1">
          <mxGeometry x="190" y="490" width="72" height="81" as="geometry" />
        </mxCell>
        <mxCell id="fgVQ6vixdc5EOe0Mpmk0-3" value="Hasher" style="outlineConnect=0;dashed=0;verticalLabelPosition=bottom;verticalAlign=top;align=center;html=1;shape=mxgraph.aws3.lambda_function;fillColor=#F58534;gradientColor=none;" vertex="1" parent="1">
          <mxGeometry x="60" y="310" width="69" height="72" as="geometry" />
        </mxCell>
        <mxCell id="fgVQ6vixdc5EOe0Mpmk0-4" value="RetreivePlaintext" style="outlineConnect=0;dashed=0;verticalLabelPosition=bottom;verticalAlign=top;align=center;html=1;shape=mxgraph.aws3.lambda_function;fillColor=#F58534;gradientColor=none;" vertex="1" parent="1">
          <mxGeometry x="324.5" y="310" width="69" height="72" as="geometry" />
        </mxCell>
        <mxCell id="fgVQ6vixdc5EOe0Mpmk0-5" value="api.hashslasher" style="sketch=0;points=[[0,0,0],[0.25,0,0],[0.5,0,0],[0.75,0,0],[1,0,0],[0,1,0],[0.25,1,0],[0.5,1,0],[0.75,1,0],[1,1,0],[0,0.25,0],[0,0.5,0],[0,0.75,0],[1,0.25,0],[1,0.5,0],[1,0.75,0]];outlineConnect=0;fontColor=#232F3E;fillColor=#E7157B;strokeColor=#ffffff;dashed=0;verticalLabelPosition=bottom;verticalAlign=top;align=center;html=1;fontSize=12;fontStyle=0;aspect=fixed;shape=mxgraph.aws4.resourceIcon;resIcon=mxgraph.aws4.api_gateway;" vertex="1" parent="1">
          <mxGeometry x="320" y="186" width="78" height="78" as="geometry" />
        </mxCell>
        <mxCell id="fgVQ6vixdc5EOe0Mpmk0-7" value="Plaintext Password File" style="verticalLabelPosition=bottom;html=1;verticalAlign=top;align=center;strokeColor=none;fillColor=#00BEF2;shape=mxgraph.azure.file_2;pointerEvents=1;" vertex="1" parent="1">
          <mxGeometry x="70.75" y="190" width="47.5" height="50" as="geometry" />
        </mxCell>
        <mxCell id="fgVQ6vixdc5EOe0Mpmk0-8" style="edgeStyle=orthogonalEdgeStyle;rounded=0;orthogonalLoop=1;jettySize=auto;html=1;exitX=0.5;exitY=1;exitDx=0;exitDy=0;exitPerimeter=0;entryX=1;entryY=0.5;entryDx=0;entryDy=0;entryPerimeter=0;" edge="1" parent="1" source="fgVQ6vixdc5EOe0Mpmk0-4" target="fgVQ6vixdc5EOe0Mpmk0-1">
          <mxGeometry relative="1" as="geometry" />
        </mxCell>
        <mxCell id="fgVQ6vixdc5EOe0Mpmk0-12" value="GETITEM" style="edgeLabel;html=1;align=center;verticalAlign=middle;resizable=0;points=[];" vertex="1" connectable="0" parent="fgVQ6vixdc5EOe0Mpmk0-8">
          <mxGeometry x="-0.2994" y="1" relative="1" as="geometry">
            <mxPoint as="offset" />
          </mxGeometry>
        </mxCell>
        <mxCell id="fgVQ6vixdc5EOe0Mpmk0-9" style="edgeStyle=orthogonalEdgeStyle;rounded=0;orthogonalLoop=1;jettySize=auto;html=1;exitX=0.5;exitY=1;exitDx=0;exitDy=0;exitPerimeter=0;entryX=0;entryY=0.5;entryDx=0;entryDy=0;entryPerimeter=0;" edge="1" parent="1" source="fgVQ6vixdc5EOe0Mpmk0-3" target="fgVQ6vixdc5EOe0Mpmk0-1">
          <mxGeometry relative="1" as="geometry" />
        </mxCell>
        <mxCell id="fgVQ6vixdc5EOe0Mpmk0-10" value="PUTITEM" style="edgeLabel;html=1;align=center;verticalAlign=middle;resizable=0;points=[];" vertex="1" connectable="0" parent="fgVQ6vixdc5EOe0Mpmk0-9">
          <mxGeometry x="-0.2951" y="1" relative="1" as="geometry">
            <mxPoint as="offset" />
          </mxGeometry>
        </mxCell>
        <mxCell id="fgVQ6vixdc5EOe0Mpmk0-13" style="edgeStyle=orthogonalEdgeStyle;rounded=0;orthogonalLoop=1;jettySize=auto;html=1;exitX=0.5;exitY=1;exitDx=0;exitDy=0;exitPerimeter=0;entryX=0.5;entryY=0;entryDx=0;entryDy=0;entryPerimeter=0;" edge="1" parent="1" source="fgVQ6vixdc5EOe0Mpmk0-7" target="fgVQ6vixdc5EOe0Mpmk0-3">
          <mxGeometry relative="1" as="geometry" />
        </mxCell>
        <mxCell id="fgVQ6vixdc5EOe0Mpmk0-14" style="edgeStyle=orthogonalEdgeStyle;rounded=0;orthogonalLoop=1;jettySize=auto;html=1;exitX=0.5;exitY=1;exitDx=0;exitDy=0;exitPerimeter=0;entryX=0.5;entryY=0;entryDx=0;entryDy=0;entryPerimeter=0;" edge="1" parent="1" source="fgVQ6vixdc5EOe0Mpmk0-5" target="fgVQ6vixdc5EOe0Mpmk0-4">
          <mxGeometry relative="1" as="geometry" />
        </mxCell>
        <mxCell id="fgVQ6vixdc5EOe0Mpmk0-17" style="edgeStyle=orthogonalEdgeStyle;rounded=0;orthogonalLoop=1;jettySize=auto;html=1;exitX=0.5;exitY=1;exitDx=0;exitDy=0;" edge="1" parent="1" source="fgVQ6vixdc5EOe0Mpmk0-16" target="fgVQ6vixdc5EOe0Mpmk0-5">
          <mxGeometry relative="1" as="geometry" />
        </mxCell>
        <mxCell id="fgVQ6vixdc5EOe0Mpmk0-16" value="Hash Value" style="rounded=1;whiteSpace=wrap;html=1;" vertex="1" parent="1">
          <mxGeometry x="299" y="80" width="120" height="60" as="geometry" />
        </mxCell>
      </root>
    </mxGraphModel>
  </diagram>
</mxfile>
